<mxfile host="app.diagrams.net" agent="Mozilla/5.0 (X11; Linux x86_64) AppleWebKit/537.36 (KHTML, like Gecko) Chrome/135.0.0.0 Safari/537.36" version="26.2.14">
  <diagram name="Page-1" id="EMogXkT6HNRtscMo8dSY">
    <mxGraphModel dx="1718" dy="395" grid="1" gridSize="10" guides="1" tooltips="1" connect="1" arrows="1" fold="1" page="1" pageScale="1" pageWidth="850" pageHeight="1100" math="0" shadow="0">
      <root>
        <mxCell id="0" />
        <mxCell id="1" parent="0" />
        <mxCell id="e0uPY-O5neKF1OcUCnWa-1" value="branches.current" style="rounded=1;whiteSpace=wrap;html=1;direction=south;" vertex="1" parent="1">
          <mxGeometry x="225" y="170" width="60" height="60" as="geometry" />
        </mxCell>
        <mxCell id="e0uPY-O5neKF1OcUCnWa-2" value="changes" style="rounded=1;whiteSpace=wrap;html=1;" vertex="1" parent="1">
          <mxGeometry x="330" y="190" width="40" height="100" as="geometry" />
        </mxCell>
        <mxCell id="e0uPY-O5neKF1OcUCnWa-20" value="" style="whiteSpace=wrap;html=1;shape=mxgraph.basic.document" vertex="1" parent="1">
          <mxGeometry x="460" y="160" width="50" height="70" as="geometry" />
        </mxCell>
        <mxCell id="e0uPY-O5neKF1OcUCnWa-21" value="" style="endArrow=classic;html=1;rounded=0;exitX=1.053;exitY=0.367;exitDx=0;exitDy=0;entryX=-0.004;entryY=0.674;entryDx=0;entryDy=0;entryPerimeter=0;exitPerimeter=0;" edge="1" parent="1" source="e0uPY-O5neKF1OcUCnWa-2" target="e0uPY-O5neKF1OcUCnWa-20">
          <mxGeometry width="50" height="50" relative="1" as="geometry">
            <mxPoint x="400" y="320" as="sourcePoint" />
            <mxPoint x="450" y="270" as="targetPoint" />
          </mxGeometry>
        </mxCell>
        <mxCell id="e0uPY-O5neKF1OcUCnWa-22" value="list" style="edgeLabel;html=1;align=center;verticalAlign=middle;resizable=0;points=[];" vertex="1" connectable="0" parent="e0uPY-O5neKF1OcUCnWa-21">
          <mxGeometry x="-0.197" y="-3" relative="1" as="geometry">
            <mxPoint y="1" as="offset" />
          </mxGeometry>
        </mxCell>
        <mxCell id="e0uPY-O5neKF1OcUCnWa-23" value="" style="endArrow=classic;html=1;rounded=0;exitX=1;exitY=0.25;exitDx=0;exitDy=0;entryX=0.012;entryY=0.342;entryDx=0;entryDy=0;entryPerimeter=0;" edge="1" parent="1" source="e0uPY-O5neKF1OcUCnWa-2" target="e0uPY-O5neKF1OcUCnWa-20">
          <mxGeometry width="50" height="50" relative="1" as="geometry">
            <mxPoint x="500" y="200" as="sourcePoint" />
            <mxPoint x="550" y="150" as="targetPoint" />
          </mxGeometry>
        </mxCell>
        <mxCell id="e0uPY-O5neKF1OcUCnWa-24" value="explode" style="edgeLabel;html=1;align=center;verticalAlign=middle;resizable=0;points=[];" vertex="1" connectable="0" parent="e0uPY-O5neKF1OcUCnWa-23">
          <mxGeometry x="-0.2368" relative="1" as="geometry">
            <mxPoint as="offset" />
          </mxGeometry>
        </mxCell>
        <mxCell id="e0uPY-O5neKF1OcUCnWa-25" value="" style="endArrow=classic;html=1;rounded=0;entryX=0;entryY=0.25;entryDx=0;entryDy=0;exitX=0.75;exitY=0;exitDx=0;exitDy=0;" edge="1" parent="1" source="e0uPY-O5neKF1OcUCnWa-1" target="e0uPY-O5neKF1OcUCnWa-2">
          <mxGeometry width="50" height="50" relative="1" as="geometry">
            <mxPoint x="250" y="305" as="sourcePoint" />
            <mxPoint x="650" y="420" as="targetPoint" />
          </mxGeometry>
        </mxCell>
        <mxCell id="e0uPY-O5neKF1OcUCnWa-26" value="" style="endArrow=classic;html=1;rounded=0;exitX=0.03;exitY=0.856;exitDx=0;exitDy=0;entryX=1;entryY=0.75;entryDx=0;entryDy=0;exitPerimeter=0;" edge="1" parent="1" source="e0uPY-O5neKF1OcUCnWa-2" target="e0uPY-O5neKF1OcUCnWa-28">
          <mxGeometry width="50" height="50" relative="1" as="geometry">
            <mxPoint x="470" y="380" as="sourcePoint" />
            <mxPoint x="290" y="420" as="targetPoint" />
          </mxGeometry>
        </mxCell>
        <mxCell id="e0uPY-O5neKF1OcUCnWa-27" value="use" style="edgeLabel;html=1;align=center;verticalAlign=middle;resizable=0;points=[];" vertex="1" connectable="0" parent="e0uPY-O5neKF1OcUCnWa-26">
          <mxGeometry x="-0.3038" y="2" relative="1" as="geometry">
            <mxPoint x="-5" y="1" as="offset" />
          </mxGeometry>
        </mxCell>
        <mxCell id="e0uPY-O5neKF1OcUCnWa-28" value="changes.base" style="rounded=1;whiteSpace=wrap;html=1;" vertex="1" parent="1">
          <mxGeometry x="225" y="240" width="60" height="60" as="geometry" />
        </mxCell>
        <mxCell id="e0uPY-O5neKF1OcUCnWa-29" value="" style="endArrow=classic;html=1;rounded=0;entryX=-0.07;entryY=0.656;entryDx=0;entryDy=0;exitX=1;exitY=0.25;exitDx=0;exitDy=0;entryPerimeter=0;" edge="1" parent="1" source="e0uPY-O5neKF1OcUCnWa-28" target="e0uPY-O5neKF1OcUCnWa-2">
          <mxGeometry width="50" height="50" relative="1" as="geometry">
            <mxPoint x="290" y="380" as="sourcePoint" />
            <mxPoint x="340" y="330" as="targetPoint" />
          </mxGeometry>
        </mxCell>
        <mxCell id="e0uPY-O5neKF1OcUCnWa-30" value="branches" style="rounded=1;whiteSpace=wrap;html=1;" vertex="1" parent="1">
          <mxGeometry x="130" y="240" width="40" height="100" as="geometry" />
        </mxCell>
        <mxCell id="e0uPY-O5neKF1OcUCnWa-31" value="" style="endArrow=classic;html=1;rounded=0;exitX=1.07;exitY=0.149;exitDx=0;exitDy=0;exitPerimeter=0;entryX=0.75;entryY=1;entryDx=0;entryDy=0;" edge="1" parent="1" source="e0uPY-O5neKF1OcUCnWa-30" target="e0uPY-O5neKF1OcUCnWa-1">
          <mxGeometry width="50" height="50" relative="1" as="geometry">
            <mxPoint x="130" y="280" as="sourcePoint" />
            <mxPoint x="180" y="230" as="targetPoint" />
          </mxGeometry>
        </mxCell>
        <mxCell id="e0uPY-O5neKF1OcUCnWa-32" value="use" style="edgeLabel;html=1;align=center;verticalAlign=middle;resizable=0;points=[];" vertex="1" connectable="0" parent="e0uPY-O5neKF1OcUCnWa-31">
          <mxGeometry x="-0.0099" y="1" relative="1" as="geometry">
            <mxPoint as="offset" />
          </mxGeometry>
        </mxCell>
        <mxCell id="e0uPY-O5neKF1OcUCnWa-33" value="" style="endArrow=classic;html=1;rounded=0;exitX=1;exitY=0.5;exitDx=0;exitDy=0;" edge="1" parent="1" source="e0uPY-O5neKF1OcUCnWa-2">
          <mxGeometry width="50" height="50" relative="1" as="geometry">
            <mxPoint x="470" y="300" as="sourcePoint" />
            <mxPoint x="550" y="280" as="targetPoint" />
          </mxGeometry>
        </mxCell>
        <mxCell id="e0uPY-O5neKF1OcUCnWa-34" value="merge" style="edgeLabel;html=1;align=center;verticalAlign=middle;resizable=0;points=[];" vertex="1" connectable="0" parent="e0uPY-O5neKF1OcUCnWa-33">
          <mxGeometry x="-0.117" y="1" relative="1" as="geometry">
            <mxPoint x="-1" as="offset" />
          </mxGeometry>
        </mxCell>
        <mxCell id="e0uPY-O5neKF1OcUCnWa-35" value="" style="endArrow=classic;html=1;rounded=0;exitX=1.013;exitY=0.631;exitDx=0;exitDy=0;exitPerimeter=0;" edge="1" parent="1" source="e0uPY-O5neKF1OcUCnWa-2">
          <mxGeometry width="50" height="50" relative="1" as="geometry">
            <mxPoint x="480" y="360" as="sourcePoint" />
            <mxPoint x="520" y="340" as="targetPoint" />
          </mxGeometry>
        </mxCell>
        <mxCell id="e0uPY-O5neKF1OcUCnWa-36" value="rebase" style="edgeLabel;html=1;align=center;verticalAlign=middle;resizable=0;points=[];" vertex="1" connectable="0" parent="e0uPY-O5neKF1OcUCnWa-35">
          <mxGeometry x="0.0976" y="2" relative="1" as="geometry">
            <mxPoint as="offset" />
          </mxGeometry>
        </mxCell>
        <mxCell id="e0uPY-O5neKF1OcUCnWa-37" value="leafs" style="rounded=1;whiteSpace=wrap;html=1;" vertex="1" parent="1">
          <mxGeometry x="130" y="40" width="40" height="100" as="geometry" />
        </mxCell>
        <mxCell id="e0uPY-O5neKF1OcUCnWa-38" value="properties" style="rounded=1;whiteSpace=wrap;html=1;" vertex="1" parent="1">
          <mxGeometry x="330" y="90" width="40" height="80" as="geometry" />
        </mxCell>
        <mxCell id="e0uPY-O5neKF1OcUCnWa-39" value="" style="endArrow=classic;html=1;rounded=0;exitX=0.25;exitY=0;exitDx=0;exitDy=0;entryX=-0.04;entryY=0.666;entryDx=0;entryDy=0;entryPerimeter=0;" edge="1" parent="1" source="e0uPY-O5neKF1OcUCnWa-1" target="e0uPY-O5neKF1OcUCnWa-38">
          <mxGeometry width="50" height="50" relative="1" as="geometry">
            <mxPoint x="340" y="120" as="sourcePoint" />
            <mxPoint x="390" y="70" as="targetPoint" />
          </mxGeometry>
        </mxCell>
        <mxCell id="e0uPY-O5neKF1OcUCnWa-40" value="leafs.current" style="rounded=1;whiteSpace=wrap;html=1;direction=south;" vertex="1" parent="1">
          <mxGeometry x="225" y="20" width="60" height="60" as="geometry" />
        </mxCell>
        <mxCell id="e0uPY-O5neKF1OcUCnWa-43" value="" style="endArrow=classic;html=1;rounded=0;exitX=0.75;exitY=0;exitDx=0;exitDy=0;entryX=0;entryY=0.25;entryDx=0;entryDy=0;" edge="1" parent="1" source="e0uPY-O5neKF1OcUCnWa-40" target="e0uPY-O5neKF1OcUCnWa-38">
          <mxGeometry width="50" height="50" relative="1" as="geometry">
            <mxPoint x="430" y="30" as="sourcePoint" />
            <mxPoint x="480" y="-20" as="targetPoint" />
          </mxGeometry>
        </mxCell>
        <mxCell id="e0uPY-O5neKF1OcUCnWa-44" value="" style="endArrow=classic;html=1;rounded=0;exitX=1;exitY=0.5;exitDx=0;exitDy=0;entryX=0.75;entryY=1;entryDx=0;entryDy=0;" edge="1" parent="1" source="e0uPY-O5neKF1OcUCnWa-37" target="e0uPY-O5neKF1OcUCnWa-40">
          <mxGeometry width="50" height="50" relative="1" as="geometry">
            <mxPoint x="180" y="130" as="sourcePoint" />
            <mxPoint x="230" y="80" as="targetPoint" />
          </mxGeometry>
        </mxCell>
        <mxCell id="e0uPY-O5neKF1OcUCnWa-45" value="use" style="edgeLabel;html=1;align=center;verticalAlign=middle;resizable=0;points=[];" vertex="1" connectable="0" parent="e0uPY-O5neKF1OcUCnWa-44">
          <mxGeometry x="-0.2167" y="3" relative="1" as="geometry">
            <mxPoint as="offset" />
          </mxGeometry>
        </mxCell>
        <mxCell id="e0uPY-O5neKF1OcUCnWa-46" value="origins" style="rounded=1;whiteSpace=wrap;html=1;" vertex="1" parent="1">
          <mxGeometry x="-80" y="180" width="40" height="90" as="geometry" />
        </mxCell>
        <mxCell id="e0uPY-O5neKF1OcUCnWa-47" value="credentials" style="rounded=1;whiteSpace=wrap;html=1;" vertex="1" parent="1">
          <mxGeometry x="-80" y="70" width="40" height="100" as="geometry" />
        </mxCell>
        <mxCell id="e0uPY-O5neKF1OcUCnWa-49" value="origins.current" style="rounded=1;whiteSpace=wrap;html=1;direction=south;" vertex="1" parent="1">
          <mxGeometry x="10" y="100" width="60" height="60" as="geometry" />
        </mxCell>
        <mxCell id="e0uPY-O5neKF1OcUCnWa-50" value="credentials.current" style="rounded=1;whiteSpace=wrap;html=1;direction=south;" vertex="1" parent="1">
          <mxGeometry x="10" y="190" width="60" height="60" as="geometry" />
        </mxCell>
        <mxCell id="e0uPY-O5neKF1OcUCnWa-51" value="" style="endArrow=classic;html=1;rounded=0;exitX=1;exitY=0.75;exitDx=0;exitDy=0;entryX=0.75;entryY=1;entryDx=0;entryDy=0;" edge="1" parent="1" source="e0uPY-O5neKF1OcUCnWa-47" target="e0uPY-O5neKF1OcUCnWa-49">
          <mxGeometry width="50" height="50" relative="1" as="geometry">
            <mxPoint x="-60" y="200" as="sourcePoint" />
            <mxPoint x="-10" y="150" as="targetPoint" />
          </mxGeometry>
        </mxCell>
        <mxCell id="e0uPY-O5neKF1OcUCnWa-52" value="use" style="edgeLabel;html=1;align=center;verticalAlign=middle;resizable=0;points=[];" vertex="1" connectable="0" parent="e0uPY-O5neKF1OcUCnWa-51">
          <mxGeometry x="-0.1819" y="-2" relative="1" as="geometry">
            <mxPoint as="offset" />
          </mxGeometry>
        </mxCell>
        <mxCell id="e0uPY-O5neKF1OcUCnWa-53" value="" style="endArrow=classic;html=1;rounded=0;entryX=0.25;entryY=1;entryDx=0;entryDy=0;exitX=1;exitY=0.25;exitDx=0;exitDy=0;" edge="1" parent="1" source="e0uPY-O5neKF1OcUCnWa-46" target="e0uPY-O5neKF1OcUCnWa-50">
          <mxGeometry width="50" height="50" relative="1" as="geometry">
            <mxPoint x="-130" y="390" as="sourcePoint" />
            <mxPoint x="-80" y="340" as="targetPoint" />
          </mxGeometry>
        </mxCell>
        <mxCell id="e0uPY-O5neKF1OcUCnWa-55" value="use" style="edgeLabel;html=1;align=center;verticalAlign=middle;resizable=0;points=[];" vertex="1" connectable="0" parent="e0uPY-O5neKF1OcUCnWa-53">
          <mxGeometry x="-0.2187" y="2" relative="1" as="geometry">
            <mxPoint as="offset" />
          </mxGeometry>
        </mxCell>
        <mxCell id="e0uPY-O5neKF1OcUCnWa-56" value="" style="endArrow=classic;html=1;rounded=0;exitX=0.25;exitY=0;exitDx=0;exitDy=0;entryX=0;entryY=0.75;entryDx=0;entryDy=0;" edge="1" parent="1" source="e0uPY-O5neKF1OcUCnWa-49" target="e0uPY-O5neKF1OcUCnWa-37">
          <mxGeometry width="50" height="50" relative="1" as="geometry">
            <mxPoint y="150" as="sourcePoint" />
            <mxPoint x="60" y="140" as="targetPoint" />
          </mxGeometry>
        </mxCell>
        <mxCell id="e0uPY-O5neKF1OcUCnWa-57" value="" style="whiteSpace=wrap;html=1;shape=mxgraph.basic.document" vertex="1" parent="1">
          <mxGeometry x="230" y="100" width="50" height="60" as="geometry" />
        </mxCell>
        <mxCell id="e0uPY-O5neKF1OcUCnWa-58" value="" style="endArrow=classic;html=1;rounded=0;exitX=1;exitY=0.75;exitDx=0;exitDy=0;entryX=0;entryY=0.5;entryDx=0;entryDy=0;entryPerimeter=0;" edge="1" parent="1" source="e0uPY-O5neKF1OcUCnWa-37" target="e0uPY-O5neKF1OcUCnWa-57">
          <mxGeometry width="50" height="50" relative="1" as="geometry">
            <mxPoint x="70" y="130" as="sourcePoint" />
            <mxPoint x="120" y="80" as="targetPoint" />
          </mxGeometry>
        </mxCell>
        <mxCell id="e0uPY-O5neKF1OcUCnWa-59" value="list" style="edgeLabel;html=1;align=center;verticalAlign=middle;resizable=0;points=[];" vertex="1" connectable="0" parent="e0uPY-O5neKF1OcUCnWa-58">
          <mxGeometry x="-0.1082" y="-2" relative="1" as="geometry">
            <mxPoint as="offset" />
          </mxGeometry>
        </mxCell>
        <mxCell id="e0uPY-O5neKF1OcUCnWa-60" value="" style="endArrow=classic;html=1;rounded=0;exitX=1;exitY=0.75;exitDx=0;exitDy=0;entryX=-0.012;entryY=0.29;entryDx=0;entryDy=0;entryPerimeter=0;" edge="1" parent="1" source="e0uPY-O5neKF1OcUCnWa-30" target="e0uPY-O5neKF1OcUCnWa-61">
          <mxGeometry width="50" height="50" relative="1" as="geometry">
            <mxPoint x="90" y="210" as="sourcePoint" />
            <mxPoint x="210" y="410" as="targetPoint" />
          </mxGeometry>
        </mxCell>
        <mxCell id="e0uPY-O5neKF1OcUCnWa-62" value="list" style="edgeLabel;html=1;align=center;verticalAlign=middle;resizable=0;points=[];" vertex="1" connectable="0" parent="e0uPY-O5neKF1OcUCnWa-60">
          <mxGeometry x="-0.3579" y="-1" relative="1" as="geometry">
            <mxPoint as="offset" />
          </mxGeometry>
        </mxCell>
        <mxCell id="e0uPY-O5neKF1OcUCnWa-61" value="" style="whiteSpace=wrap;html=1;shape=mxgraph.basic.document" vertex="1" parent="1">
          <mxGeometry x="230" y="330" width="50" height="60" as="geometry" />
        </mxCell>
        <mxCell id="e0uPY-O5neKF1OcUCnWa-63" value="" style="endArrow=classic;html=1;rounded=0;entryX=0.02;entryY=0.871;entryDx=0;entryDy=0;entryPerimeter=0;exitX=0.25;exitY=0;exitDx=0;exitDy=0;" edge="1" parent="1" source="e0uPY-O5neKF1OcUCnWa-50" target="e0uPY-O5neKF1OcUCnWa-37">
          <mxGeometry width="50" height="50" relative="1" as="geometry">
            <mxPoint x="-30" y="210" as="sourcePoint" />
            <mxPoint x="20" y="160" as="targetPoint" />
          </mxGeometry>
        </mxCell>
        <mxCell id="e0uPY-O5neKF1OcUCnWa-64" value="" style="endArrow=classic;html=1;rounded=0;exitX=1;exitY=0;exitDx=0;exitDy=0;entryX=-0.02;entryY=0.161;entryDx=0;entryDy=0;entryPerimeter=0;" edge="1" parent="1" source="e0uPY-O5neKF1OcUCnWa-49" target="e0uPY-O5neKF1OcUCnWa-30">
          <mxGeometry width="50" height="50" relative="1" as="geometry">
            <mxPoint x="10" y="250" as="sourcePoint" />
            <mxPoint x="60" y="200" as="targetPoint" />
          </mxGeometry>
        </mxCell>
        <mxCell id="e0uPY-O5neKF1OcUCnWa-65" value="" style="endArrow=classic;html=1;rounded=0;exitX=0.75;exitY=0;exitDx=0;exitDy=0;entryX=-0.04;entryY=0.341;entryDx=0;entryDy=0;entryPerimeter=0;" edge="1" parent="1" source="e0uPY-O5neKF1OcUCnWa-50" target="e0uPY-O5neKF1OcUCnWa-30">
          <mxGeometry width="50" height="50" relative="1" as="geometry">
            <mxPoint x="-10" y="310" as="sourcePoint" />
            <mxPoint x="40" y="260" as="targetPoint" />
          </mxGeometry>
        </mxCell>
        <mxCell id="e0uPY-O5neKF1OcUCnWa-67" value="" style="endArrow=classic;html=1;rounded=0;exitX=0.75;exitY=0;exitDx=0;exitDy=0;" edge="1" parent="1" source="e0uPY-O5neKF1OcUCnWa-49">
          <mxGeometry width="50" height="50" relative="1" as="geometry">
            <mxPoint x="120" y="180" as="sourcePoint" />
            <mxPoint x="180" y="160" as="targetPoint" />
          </mxGeometry>
        </mxCell>
        <mxCell id="e0uPY-O5neKF1OcUCnWa-68" value="" style="endArrow=classic;html=1;rounded=0;exitX=0.5;exitY=0;exitDx=0;exitDy=0;" edge="1" parent="1" source="e0uPY-O5neKF1OcUCnWa-50">
          <mxGeometry width="50" height="50" relative="1" as="geometry">
            <mxPoint x="60" y="200" as="sourcePoint" />
            <mxPoint x="180" y="170" as="targetPoint" />
          </mxGeometry>
        </mxCell>
        <mxCell id="e0uPY-O5neKF1OcUCnWa-70" value="" style="endArrow=none;dashed=1;html=1;rounded=0;entryX=0.5;entryY=1;entryDx=0;entryDy=0;" edge="1" parent="1" source="e0uPY-O5neKF1OcUCnWa-79" target="e0uPY-O5neKF1OcUCnWa-72">
          <mxGeometry width="50" height="50" relative="1" as="geometry">
            <mxPoint x="700" y="340" as="sourcePoint" />
            <mxPoint x="760" y="50" as="targetPoint" />
          </mxGeometry>
        </mxCell>
        <mxCell id="e0uPY-O5neKF1OcUCnWa-71" value="" style="endArrow=none;dashed=1;html=1;rounded=0;entryX=0;entryY=0;entryDx=0;entryDy=0;exitX=0.754;exitY=0.966;exitDx=0;exitDy=0;exitPerimeter=0;" edge="1" parent="1" source="e0uPY-O5neKF1OcUCnWa-73" target="e0uPY-O5neKF1OcUCnWa-79">
          <mxGeometry width="50" height="50" relative="1" as="geometry">
            <mxPoint x="600" y="90" as="sourcePoint" />
            <mxPoint x="720" y="280" as="targetPoint" />
          </mxGeometry>
        </mxCell>
        <mxCell id="e0uPY-O5neKF1OcUCnWa-72" value="changes.base" style="ellipse;whiteSpace=wrap;html=1;aspect=fixed;" vertex="1" parent="1">
          <mxGeometry x="750" y="80" width="30" height="30" as="geometry" />
        </mxCell>
        <mxCell id="e0uPY-O5neKF1OcUCnWa-77" value="" style="endArrow=classic;html=1;rounded=0;exitX=1.02;exitY=0.738;exitDx=0;exitDy=0;exitPerimeter=0;" edge="1" parent="1" source="e0uPY-O5neKF1OcUCnWa-73">
          <mxGeometry width="50" height="50" relative="1" as="geometry">
            <mxPoint x="650" y="180" as="sourcePoint" />
            <mxPoint x="750" y="140" as="targetPoint" />
          </mxGeometry>
        </mxCell>
        <mxCell id="e0uPY-O5neKF1OcUCnWa-78" value="merge" style="edgeLabel;html=1;align=center;verticalAlign=middle;resizable=0;points=[];" vertex="1" connectable="0" parent="e0uPY-O5neKF1OcUCnWa-77">
          <mxGeometry x="-0.1599" y="3" relative="1" as="geometry">
            <mxPoint as="offset" />
          </mxGeometry>
        </mxCell>
        <mxCell id="e0uPY-O5neKF1OcUCnWa-82" value="" style="endArrow=classic;startArrow=classic;html=1;rounded=0;" edge="1" parent="1">
          <mxGeometry width="50" height="50" relative="1" as="geometry">
            <mxPoint x="680" y="275" as="sourcePoint" />
            <mxPoint x="600" y="165" as="targetPoint" />
          </mxGeometry>
        </mxCell>
        <mxCell id="e0uPY-O5neKF1OcUCnWa-83" value="changes" style="edgeLabel;html=1;align=center;verticalAlign=middle;resizable=0;points=[];" vertex="1" connectable="0" parent="e0uPY-O5neKF1OcUCnWa-82">
          <mxGeometry x="0.1911" relative="1" as="geometry">
            <mxPoint as="offset" />
          </mxGeometry>
        </mxCell>
        <mxCell id="e0uPY-O5neKF1OcUCnWa-87" value="" style="endArrow=none;dashed=1;html=1;rounded=0;" edge="1" parent="1" target="e0uPY-O5neKF1OcUCnWa-79">
          <mxGeometry width="50" height="50" relative="1" as="geometry">
            <mxPoint x="700" y="330" as="sourcePoint" />
            <mxPoint x="760" y="100" as="targetPoint" />
          </mxGeometry>
        </mxCell>
        <mxCell id="e0uPY-O5neKF1OcUCnWa-79" value="offset" style="ellipse;whiteSpace=wrap;html=1;aspect=fixed;" vertex="1" parent="1">
          <mxGeometry x="700" y="240" width="30" height="30" as="geometry" />
        </mxCell>
        <mxCell id="e0uPY-O5neKF1OcUCnWa-73" value="branches.current" style="ellipse;whiteSpace=wrap;html=1;aspect=fixed;rotation=-15;" vertex="1" parent="1">
          <mxGeometry x="610" y="130" width="30" height="30" as="geometry" />
        </mxCell>
        <mxCell id="e0uPY-O5neKF1OcUCnWa-96" value="" style="endArrow=none;dashed=1;html=1;rounded=0;entryX=0.5;entryY=1;entryDx=0;entryDy=0;" edge="1" target="e0uPY-O5neKF1OcUCnWa-97" parent="1">
          <mxGeometry width="50" height="50" relative="1" as="geometry">
            <mxPoint x="810" y="340" as="sourcePoint" />
            <mxPoint x="850.88" y="59.46" as="targetPoint" />
          </mxGeometry>
        </mxCell>
        <mxCell id="e0uPY-O5neKF1OcUCnWa-97" value="r2" style="ellipse;whiteSpace=wrap;html=1;aspect=fixed;" vertex="1" parent="1">
          <mxGeometry x="830" y="240" width="30" height="30" as="geometry" />
        </mxCell>
        <mxCell id="e0uPY-O5neKF1OcUCnWa-99" value="" style="endArrow=classic;html=1;rounded=0;exitX=1;exitY=0.5;exitDx=0;exitDy=0;entryX=0;entryY=0.5;entryDx=0;entryDy=0;" edge="1" parent="1" source="e0uPY-O5neKF1OcUCnWa-79" target="e0uPY-O5neKF1OcUCnWa-97">
          <mxGeometry width="50" height="50" relative="1" as="geometry">
            <mxPoint x="750" y="250" as="sourcePoint" />
            <mxPoint x="810" y="150" as="targetPoint" />
          </mxGeometry>
        </mxCell>
        <mxCell id="e0uPY-O5neKF1OcUCnWa-100" value="rebase" style="edgeLabel;html=1;align=center;verticalAlign=middle;resizable=0;points=[];" vertex="1" connectable="0" parent="e0uPY-O5neKF1OcUCnWa-99">
          <mxGeometry x="-0.3491" y="1" relative="1" as="geometry">
            <mxPoint x="7" y="1" as="offset" />
          </mxGeometry>
        </mxCell>
        <mxCell id="e0uPY-O5neKF1OcUCnWa-101" value="" style="endArrow=none;dashed=1;html=1;rounded=0;entryX=0;entryY=0;entryDx=0;entryDy=0;exitX=0.5;exitY=1;exitDx=0;exitDy=0;" edge="1" parent="1" source="e0uPY-O5neKF1OcUCnWa-102" target="e0uPY-O5neKF1OcUCnWa-97">
          <mxGeometry width="50" height="50" relative="1" as="geometry">
            <mxPoint x="790" y="170" as="sourcePoint" />
            <mxPoint x="848.02" y="243.54" as="targetPoint" />
          </mxGeometry>
        </mxCell>
        <mxCell id="e0uPY-O5neKF1OcUCnWa-102" value="branches.current&#39;" style="ellipse;whiteSpace=wrap;html=1;aspect=fixed;rotation=-30;" vertex="1" parent="1">
          <mxGeometry x="780" y="160" width="30" height="30" as="geometry" />
        </mxCell>
        <mxCell id="e0uPY-O5neKF1OcUCnWa-104" value="" style="endArrow=none;dashed=1;html=1;rounded=0;" edge="1" parent="1">
          <mxGeometry width="50" height="50" relative="1" as="geometry">
            <mxPoint x="850.11" y="241" as="sourcePoint" />
            <mxPoint x="900" y="120" as="targetPoint" />
          </mxGeometry>
        </mxCell>
        <mxCell id="e0uPY-O5neKF1OcUCnWa-105" value="" style="endArrow=classic;html=1;rounded=0;exitX=1;exitY=1;exitDx=0;exitDy=0;" edge="1" parent="1" source="e0uPY-O5neKF1OcUCnWa-102">
          <mxGeometry width="50" height="50" relative="1" as="geometry">
            <mxPoint x="860.08" y="188" as="sourcePoint" />
            <mxPoint x="880" y="180" as="targetPoint" />
          </mxGeometry>
        </mxCell>
        <mxCell id="e0uPY-O5neKF1OcUCnWa-106" value="merge" style="edgeLabel;html=1;align=center;verticalAlign=middle;resizable=0;points=[];" vertex="1" connectable="0" parent="e0uPY-O5neKF1OcUCnWa-105">
          <mxGeometry x="-0.1599" y="3" relative="1" as="geometry">
            <mxPoint as="offset" />
          </mxGeometry>
        </mxCell>
      </root>
    </mxGraphModel>
  </diagram>
</mxfile>
